<?xml version="1.0" encoding="utf-8"?>
<!-- Generator: Adobe Illustrator 24.0.1, SVG Export Plug-In . SVG Version: 6.00 Build 0)  -->
<svg version="1.1" id="Layer_1" xmlns="http://www.w3.org/2000/svg" xmlns:xlink="http://www.w3.org/1999/xlink" x="0px" y="0px"
	 viewBox="0 0 1584 792" style="enable-background:new 0 0 1584 792;" xml:space="preserve">
<style type="text/css">
	.st0{fill-rule:evenodd;clip-rule:evenodd;fill:#41D6C6;}
	.st1{fill-rule:evenodd;clip-rule:evenodd;fill:#4346DE;}
	.st2{opacity:0.23;fill-rule:evenodd;clip-rule:evenodd;fill:#E0E1FF;}
	.st3{opacity:0.2;}
	.st4{fill:url(#SVGID_1_);fill-opacity:0.32;}
	.st5{fill:url(#SVGID_2_);fill-opacity:0.48;}
	.st6{fill:url(#SVGID_3_);fill-opacity:0.64;}
	.st7{opacity:0.22;}
	.st8{fill:#D3DDEC;fill-opacity:0.8;}
	.st9{fill:#D3DDEC;fill-opacity:0.48;}
	.st10{fill:#F8FBFF;}
</style>
<g>
	<path class="st0" d="M574.4,678.1l-6.1,87.3l563.3-205l6.1-87.3L574.4,678.1z"/>
	<path class="st1" d="M793.4,465l-6.1,87.3l563.3-205l6.1-87.3L793.4,465z"/>
	<path class="st2" d="M444.5,462.4l-6.1,87.4l187.9-68.4l6.1-87.4L444.5,462.4z"/>
	<g transform="rotate(-133 358.236 311.158)" class="st3">
		
			<linearGradient id="SVGID_1_" gradientUnits="userSpaceOnUse" x1="66.9826" y1="-66.6385" x2="66.9826" y2="-65.7125" gradientTransform="matrix(36.801 -127.6107 -129.5712 48.8812 -10867.9121 11744.1357)">
			<stop  offset="0" style="stop-color:#53C0F1;stop-opacity:0.24"/>
			<stop  offset="1" style="stop-color:#D2F1FF"/>
		</linearGradient>
		<path class="st4" d="M174.6-116.5l-28.9,91.6l88-30.1c1.8-0.6,3.3-2.1,3.8-3.9l28-88.7L174.6-116.5L174.6-116.5z"/>
		
			<linearGradient id="SVGID_2_" gradientUnits="userSpaceOnUse" x1="66.5656" y1="-66.2592" x2="65.5656" y2="-65.7762" gradientTransform="matrix(0.8531 -80.936 -81.1493 8.4664 -5301.1602 5909.5361)">
			<stop  offset="0" style="stop-color:#25B2F2;stop-opacity:0.64"/>
			<stop  offset="1" style="stop-color:#85D4F8"/>
		</linearGradient>
		<path class="st5" d="M122.1-48.5l29.6-91l24.4,23.8l-29.6,91L122.1-48.5z"/>
		
			<linearGradient id="SVGID_3_" gradientUnits="userSpaceOnUse" x1="66.686" y1="-66.4441" x2="66.1478" y2="-65.9063" gradientTransform="matrix(0.8526 -80.9355 -81.1488 8.4659 -5241.6328 5847.8486)">
			<stop  offset="0" style="stop-color:#25B2F2"/>
			<stop  offset="1" style="stop-color:#85D4F8"/>
		</linearGradient>
		<path class="st6" d="M151.2-139.7l90.3-31.7l24.4,23.8L175.6-116C175.6-116,151.2-139.7,151.2-139.7z"/>
	</g>
	<g transform="rotate(-44 1028 -223.824)" class="st7">
		<path class="st8" d="M343.5,395.9l-22.4,23.5l31.2,3.9c0.6,0.1,1.3-0.1,1.7-0.6l21.7-22.7L343.5,395.9z"/>
		<path class="st9" d="M316.6,378.9l15.5-16l11.7,33l-22.5,23.3L310,387.4c-0.3-0.7-0.1-1.6,0.5-2.1L316.6,378.9L316.6,378.9z"/>
		<path class="st10" d="M331.8,362.9l31,3.7c0.7,0.1,1.4,0.6,1.6,1.3l11.3,31.8l-32.2-3.9L331.8,362.9L331.8,362.9z"/>
	</g>
</g>
</svg>
